<?xml version="1.0" standalone="no"?>
<!DOCTYPE svg PUBLIC "-//W3C//DTD SVG 20010904//EN"
 "http://www.w3.org/TR/2001/REC-SVG-20010904/DTD/svg10.dtd">
<svg version="1.0" xmlns="http://www.w3.org/2000/svg"
 width="512.000000pt" height="512.000000pt" viewBox="0 0 512.000000 512.000000"
 preserveAspectRatio="xMidYMid meet">
<metadata>
Created by potrace 1.14, written by Peter Selinger 2001-2017
</metadata>
<g transform="translate(0.000000,512.000000) scale(0.100000,-0.100000)"
fill="#000000" stroke="none">
<path d="M3145 5107 c-22 -8 -53 -21 -70 -30 -16 -8 -706 -692 -1531 -1519
-1664 -1666 -1540 -1531 -1538 -1668 1 -106 23 -141 196 -317 84 -85 172 -166
196 -180 29 -17 63 -27 107 -31 62 -5 69 -3 167 46 123 61 175 74 288 74 300
-1 531 -237 532 -542 1 -109 -17 -171 -83 -297 -39 -74 -41 -82 -37 -145 4
-47 13 -79 31 -110 38 -64 325 -344 378 -368 66 -29 188 -28 254 4 72 34 3034
2998 3064 3066 28 62 28 188 1 249 -24 53 -304 340 -368 378 -31 18 -63 27
-110 31 -63 4 -71 2 -145 -37 -126 -66 -188 -84 -297 -83 -305 1 -541 232
-542 532 0 113 13 165 74 288 49 98 51 105 46 167 -4 44 -14 78 -31 107 -39
66 -326 344 -380 368 -59 26 -151 34 -202 17z m130 -173 c18 -8 96 -80 174
-158 105 -107 141 -150 141 -169 0 -13 -20 -64 -45 -112 -55 -109 -79 -211
-78 -335 0 -119 20 -199 80 -320 38 -77 61 -109 127 -176 67 -66 99 -89 176
-127 121 -60 201 -80 320 -80 124 -1 226 23 335 78 48 25 99 45 113 45 20 0
61 -35 178 -152 162 -163 176 -186 155 -250 -8 -24 -438 -460 -1498 -1520
-1627 -1626 -1515 -1522 -1596 -1483 -19 9 -98 81 -176 159 -105 107 -141 150
-141 169 0 13 20 64 45 112 55 109 79 211 78 335 0 119 -20 199 -80 320 -38
77 -61 109 -127 176 -67 66 -99 89 -176 127 -121 60 -201 80 -320 80 -124 1
-226 -23 -335 -78 -48 -25 -99 -45 -112 -45 -19 0 -62 36 -169 141 -78 78
-150 157 -159 176 -39 81 -142 -31 1478 1591 815 816 1496 1490 1512 1498 39
17 60 17 100 -2z"/>
<path d="M3065 4670 l-110 -110 63 -62 62 -63 110 110 110 110 -63 63 -62 62
-110 -110z"/>
<path d="M2687 4292 l-107 -107 63 -63 62 -62 110 110 110 110 -60 60 c-33 33
-62 60 -65 60 -3 0 -54 -48 -113 -108z"/>
<path d="M2317 3922 c-59 -59 -107 -112 -107 -118 0 -13 102 -114 115 -114 6
0 59 48 118 108 l107 107 -63 63 -62 62 -108 -108z"/>
<path d="M3195 3680 c-31 -13 -943 -932 -954 -960 -20 -55 38 -120 94 -106 11
3 235 220 498 483 514 515 503 502 455 557 -26 29 -64 39 -93 26z"/>
<path d="M1935 3540 l-110 -110 63 -62 62 -63 112 112 113 113 -60 60 c-33 33
-62 60 -65 60 -3 0 -55 -50 -115 -110z"/>
<path d="M4555 3180 l-110 -110 63 -62 62 -63 110 110 110 110 -63 63 -62 62
-110 -110z"/>
<path d="M1567 3172 c-59 -59 -107 -112 -107 -117 0 -6 26 -36 58 -68 l57 -57
113 113 112 112 -63 63 -62 62 -108 -108z"/>
<path d="M4177 2802 l-107 -107 63 -63 62 -62 110 110 110 110 -60 60 c-33 33
-62 60 -65 60 -3 0 -54 -48 -113 -108z"/>
<path d="M1185 2790 l-110 -110 63 -62 62 -63 112 112 113 113 -60 60 c-33 33
-62 60 -65 60 -3 0 -55 -50 -115 -110z"/>
<path d="M3807 2432 c-59 -59 -107 -112 -107 -118 0 -13 102 -114 115 -114 6
0 59 48 118 108 l107 107 -63 63 -62 62 -108 -108z"/>
<path d="M807 2412 l-107 -107 63 -63 62 -62 113 113 112 112 -58 58 c-32 31
-62 57 -67 57 -6 0 -59 -48 -118 -108z"/>
<path d="M3425 2050 l-110 -110 63 -62 62 -63 112 112 113 113 -60 60 c-33 33
-62 60 -65 60 -3 0 -55 -50 -115 -110z"/>
<path d="M435 2040 l-110 -110 63 -62 62 -63 112 112 113 113 -60 60 c-33 33
-62 60 -65 60 -3 0 -55 -50 -115 -110z"/>
<path d="M3052 1677 l-112 -112 58 -58 c32 -31 62 -57 67 -57 6 0 59 48 118
108 l107 107 -63 63 -62 62 -113 -113z"/>
<path d="M2675 1300 l-110 -110 63 -62 62 -63 112 112 113 113 -60 60 c-33 33
-62 60 -65 60 -3 0 -55 -50 -115 -110z"/>
<path d="M2302 927 l-112 -112 63 -63 62 -62 108 108 c59 59 107 112 107 117
0 6 -26 36 -58 68 l-57 57 -113 -113z"/>
<path d="M1925 550 l-110 -110 63 -62 62 -63 112 112 113 113 -60 60 c-33 33
-62 60 -65 60 -3 0 -55 -50 -115 -110z"/>
</g>
</svg>
